<svg width="171" height="146" viewBox="0 0 171 146" fill="none" xmlns="http://www.w3.org/2000/svg">
<path d="M85.3281 0C102.204 3.06376e-05 118.701 5.00495 132.733 14.3809C146.765 23.7568 157.702 37.0832 164.16 52.6748C170.618 68.2663 172.309 85.4227 169.017 101.975C165.724 118.527 157.597 133.731 145.664 145.664L133.22 133.22C145.476 120.963 153.058 104.031 153.058 85.3281C153.058 47.9227 122.734 17.5988 85.3281 17.5986C47.9227 17.5988 17.5997 47.9227 17.5996 85.3281C17.5997 104.03 25.1796 120.962 37.4355 133.219L24.9922 145.664C13.0589 133.731 4.93204 118.527 1.63965 101.975C-1.65271 85.4228 0.0370066 68.2663 6.49512 52.6748C12.9534 37.0832 23.8908 23.7568 37.9229 14.3809C51.9549 5.00499 68.452 -7.71167e-07 85.3281 0Z" fill="url(#paint0_linear_1164_2008)"/>
<defs>
<linearGradient id="paint0_linear_1164_2008" x1="153.338" y1="138.064" x2="96.797" y2="21.0384" gradientUnits="userSpaceOnUse">
<stop stop-color="#2D65D5"/>
<stop offset="1" stop-color="#FFA260"/>
</linearGradient>
</defs>
</svg>
