<svg width="111" height="95" viewBox="0 0 111 95" fill="none" xmlns="http://www.w3.org/2000/svg">
<path d="M55.4043 0C66.362 8.28728e-05 77.0736 3.25012 86.1846 9.33789C95.2956 15.4257 102.396 24.0785 106.59 34.2021C110.783 44.3258 111.881 55.4656 109.743 66.2129C107.605 76.9601 102.328 86.8318 94.5801 94.5801L86.5 86.5C94.4584 78.5418 99.3809 67.5474 99.3809 55.4033C99.3806 31.1159 79.6918 11.4268 55.4043 11.4268C31.1169 11.4269 11.428 31.116 11.4277 55.4033C11.4277 67.5468 16.3498 78.5409 24.3076 86.499L16.2275 94.5801C8.47928 86.8318 3.20223 76.9601 1.06445 66.2129C-1.0733 55.4657 0.0244392 44.3258 4.21777 34.2021C8.4111 24.0786 15.5121 15.4257 24.623 9.33789C33.7341 3.25005 44.4465 -5.00724e-07 55.4043 0Z" fill="url(#paint0_linear_1627_547)"/>
<defs>
<linearGradient id="paint0_linear_1627_547" x1="99.5628" y1="89.6455" x2="62.8508" y2="13.6602" gradientUnits="userSpaceOnUse">
<stop stop-color="#00B049"/>
<stop offset="1" stop-color="#038859"/>
</linearGradient>
</defs>
</svg>
