<svg width="21" height="28" viewBox="0 0 21 28" fill="none" xmlns="http://www.w3.org/2000/svg">
<g clip-path="url(#clip0_1135_3934)">
<path d="M6.90128 7.35679C7.09928 6.83704 7.37153 6.35854 7.77579 5.97079C9.39279 4.39503 12.0658 4.79103 13.163 6.77104C13.9881 8.27254 14.8626 9.74105 15.7123 11.226C17.1313 13.6928 18.5668 16.1596 19.9693 18.6346C21.1491 20.7053 19.8703 23.3206 17.5273 23.6753C16.0918 23.8898 14.7471 23.2298 14.0046 21.9428C12.7588 19.7731 11.5048 17.6033 10.259 15.4418C10.2343 15.3923 10.2013 15.3511 10.1683 15.3098C10.0363 15.2026 9.97854 15.0458 9.89604 14.9056C9.34329 13.9321 8.77404 12.9668 8.22129 12.0016C7.86654 11.3745 7.49529 10.7558 7.14053 10.1288C6.81878 9.5678 6.67028 8.95729 6.68678 8.31379C6.71153 7.98379 6.75278 7.65379 6.90128 7.35679Z" fill="#3C8BD9"/>
<path d="M6.90212 7.35693C6.82787 7.65393 6.76187 7.95093 6.74537 8.26444C6.72062 8.95744 6.89387 9.60094 7.24038 10.2032C8.14788 11.7624 9.05538 13.3299 9.95463 14.8975C10.0371 15.0377 10.1031 15.178 10.1856 15.31C9.69063 16.168 9.19563 17.0177 8.69238 17.8757C7.99938 19.072 7.30638 20.2765 6.60512 21.4727C6.57212 21.4727 6.56387 21.4562 6.55562 21.4315C6.54737 21.3655 6.57212 21.3077 6.58862 21.2417C6.92687 20.0042 6.64637 18.907 5.79662 17.9665C5.27687 17.3972 4.61687 17.0755 3.85787 16.9682C2.86786 16.828 1.99336 17.0837 1.20961 17.7025C1.06936 17.8097 0.97861 17.9665 0.81361 18.049C0.780609 18.049 0.764109 18.0325 0.755859 18.0077C1.15186 17.323 1.53961 16.6382 1.93561 15.9535C3.56912 13.1154 5.20262 10.2774 6.84437 7.44768C6.86087 7.41468 6.88562 7.38993 6.90212 7.35693Z" fill="#FABC04"/>
<path d="M0.78946 18.0335C0.94621 17.8933 1.09471 17.7448 1.25971 17.6128C3.26447 16.0288 6.27572 17.1755 6.71297 19.6836C6.82022 20.2858 6.76247 20.8633 6.58097 21.4408C6.57272 21.4903 6.56447 21.5316 6.54797 21.5811C6.47372 21.7131 6.40772 21.8533 6.32522 21.9853C5.59097 23.1981 4.51022 23.8003 3.09122 23.7096C1.46596 23.5941 0.187209 22.3731 -0.0355419 20.7561C-0.142792 19.9723 0.0139582 19.2381 0.418209 18.5615C0.500709 18.413 0.59971 18.281 0.69046 18.1325C0.73171 18.0995 0.71521 18.0335 0.78946 18.0335Z" fill="#34A852"/>
<path d="M0.787345 18.0335C0.754345 18.0665 0.754345 18.1242 0.696595 18.1325C0.688345 18.0747 0.721345 18.0417 0.754345 18.0005L0.787345 18.0335Z" fill="#FABC04"/>
<path d="M6.54687 21.5802C6.51387 21.5224 6.54687 21.4812 6.57987 21.4399C6.58812 21.4482 6.60462 21.4647 6.61287 21.4729L6.54687 21.5802Z" fill="#E1C025"/>
</g>
<defs>
<clipPath id="clip0_1135_3934">
<rect width="21" height="28" fill="white"/>
</clipPath>
</defs>
</svg>
