<svg width="11" height="20" viewBox="0 0 11 20" fill="none" xmlns="http://www.w3.org/2000/svg">
<path d="M7.69125 0C6.40329 0 5.16809 0.511639 4.25736 1.42236C3.34664 2.33309 2.835 3.56829 2.835 4.85625V7.56H0.23625C0.10605 7.56 0 7.665 0 7.79625V11.3662C0 11.4964 0.105 11.6025 0.23625 11.6025H2.835V18.9262C2.835 19.0564 2.94 19.1625 3.07125 19.1625H6.64125C6.77145 19.1625 6.8775 19.0575 6.8775 18.9262V11.6025H9.49935C9.6075 11.6025 9.702 11.529 9.72825 11.424L10.6207 7.854C10.6295 7.81916 10.6303 7.78278 10.6229 7.74763C10.6155 7.71247 10.6002 7.67946 10.5781 7.65111C10.556 7.62277 10.5278 7.59983 10.4955 7.58404C10.4632 7.56825 10.4278 7.56003 10.3918 7.56H6.8775V4.85625C6.8775 4.74939 6.89855 4.64357 6.93944 4.54484C6.98034 4.44611 7.04028 4.35641 7.11584 4.28084C7.1914 4.20528 7.28111 4.14534 7.37984 4.10444C7.47857 4.06355 7.58439 4.0425 7.69125 4.0425H10.4212C10.5514 4.0425 10.6575 3.9375 10.6575 3.80625V0.23625C10.6575 0.10605 10.5525 0 10.4212 0H7.69125Z" fill="white"/>
</svg>
