<svg width="28" height="28" viewBox="0 0 28 28" fill="none" xmlns="http://www.w3.org/2000/svg">
<path d="M20.6964 3.62305C21.2624 3.62305 21.8052 3.84788 22.2054 4.2481C22.6056 4.64831 22.8305 5.19111 22.8305 5.7571V20.6954C22.8305 21.2614 22.6056 21.8042 22.2054 22.2044C21.8052 22.6046 21.2624 22.8295 20.6964 22.8295H5.75807C5.19209 22.8295 4.64928 22.6046 4.24907 22.2044C3.84886 21.8042 3.62402 21.2614 3.62402 20.6954V5.7571C3.62402 5.19111 3.84886 4.64831 4.24907 4.2481C4.64928 3.84788 5.19209 3.62305 5.75807 3.62305H20.6964ZM20.1629 20.1619V14.5067C20.1629 13.5841 19.7964 12.6994 19.1441 12.047C18.4917 11.3947 17.607 11.0282 16.6844 11.0282C15.7774 11.0282 14.7211 11.583 14.2089 12.4153V11.2309H11.2319V20.1619H14.2089V14.9015C14.2089 14.0799 14.8705 13.4077 15.6921 13.4077C16.0883 13.4077 16.4682 13.565 16.7484 13.8452C17.0285 14.1253 17.1859 14.5053 17.1859 14.9015V20.1619H20.1629ZM7.76408 9.5557C8.2395 9.5557 8.69546 9.36684 9.03164 9.03066C9.36782 8.69448 9.55668 8.23853 9.55668 7.7631C9.55668 6.77077 8.75641 5.95983 7.76408 5.95983C7.28582 5.95983 6.82715 6.14982 6.48897 6.488C6.15079 6.82617 5.96081 7.28484 5.96081 7.7631C5.96081 8.75543 6.77174 9.5557 7.76408 9.5557ZM9.24724 20.1619V11.2309H6.29158V20.1619H9.24724Z" fill="white"/>
</svg>
