<svg width="24" height="25" viewBox="0 0 24 25" fill="none" xmlns="http://www.w3.org/2000/svg">
<path d="M12 22.0664C17.5228 22.0664 22 17.5892 22 12.0664C22 6.54356 17.5228 2.06641 12 2.06641C6.47715 2.06641 2 6.54356 2 12.0664C2 13.4453 2.27907 14.759 2.78382 15.9541C3.06278 16.6145 3.20226 16.9448 3.21953 17.1944C3.2368 17.444 3.16334 17.7185 3.01642 18.2676L2 22.0664L5.79877 21.05C6.34788 20.9031 6.62244 20.8296 6.87202 20.8469C7.12161 20.8641 7.45185 21.0036 8.11235 21.2826C9.30745 21.7873 10.6211 22.0664 12 22.0664Z" stroke="white" stroke-opacity="0.8" stroke-width="1.125" stroke-linejoin="round"/>
<path d="M8.58815 12.4398L9.45909 11.3581C9.82616 10.9022 10.2799 10.4778 10.3155 9.87076C10.3244 9.71744 10.2166 9.02907 10.0008 7.65236C9.91601 7.11131 9.41086 7.0625 8.97332 7.0625C8.40314 7.0625 8.11805 7.0625 7.83495 7.19181C7.47714 7.35525 7.10979 7.81481 7.02917 8.19983C6.96539 8.50446 7.01279 8.71437 7.10759 9.13419C7.51023 10.9173 8.45481 12.6783 9.91948 14.143C11.3842 15.6077 13.1452 16.5523 14.9283 16.9549C15.3481 17.0497 15.558 17.0971 15.8627 17.0333C16.2477 16.9527 16.7072 16.5854 16.8707 16.2275C17 15.9444 17 15.6594 17 15.0892C17 14.6516 16.9512 14.1465 16.4101 14.0617C15.0334 13.8459 14.3451 13.7381 14.1917 13.747C13.5847 13.7826 13.1603 14.2363 12.7044 14.6034L11.6227 15.4743" stroke="white" stroke-opacity="0.8" stroke-width="1.125"/>
</svg>
